<?xml version="1.0" encoding="UTF-8" standalone="no"?>
<!-- Created with Inkscape (http://www.inkscape.org/) -->

<svg
   xmlns:dc="http://purl.org/dc/elements/1.1/"
   xmlns:cc="http://creativecommons.org/ns#"
   xmlns:rdf="http://www.w3.org/1999/02/22-rdf-syntax-ns#"
   xmlns:svg="http://www.w3.org/2000/svg"
   xmlns="http://www.w3.org/2000/svg"
   xmlns:sodipodi="http://sodipodi.sourceforge.net/DTD/sodipodi-0.dtd"
   xmlns:inkscape="http://www.inkscape.org/namespaces/inkscape"
   id="svg4136"
   version="1.1"
   inkscape:version="0.91 r13725"
   xml:space="preserve"
   width="309.91299"
   height="508.01047"
   viewBox="0 0 309.91299 508.01047"
   sodipodi:docname="stag.svg"
   inkscape:export-filename="C:\Users\fredbo\Downloads\stag_head.png"
   inkscape:export-xdpi="120"
   inkscape:export-ydpi="120"><metadata
     id="metadata4142"><rdf:RDF><cc:Work
         rdf:about=""><dc:format>image/svg+xml</dc:format><dc:type
           rdf:resource="http://purl.org/dc/dcmitype/StillImage" /><dc:title /></cc:Work></rdf:RDF></metadata><defs
     id="defs4140" /><sodipodi:namedview
     pagecolor="#ffffff"
     bordercolor="#666666"
     borderopacity="1"
     objecttolerance="10"
     gridtolerance="10"
     guidetolerance="10"
     inkscape:pageopacity="0"
     inkscape:pageshadow="2"
     inkscape:window-width="2048"
     inkscape:window-height="1099"
     id="namedview4138"
     showgrid="false"
     fit-margin-top="2"
     fit-margin-bottom="2"
     fit-margin-left="2"
     fit-margin-right="2"
     inkscape:zoom="1.1162321"
     inkscape:cx="-62.647982"
     inkscape:cy="311.10855"
     inkscape:window-x="-8"
     inkscape:window-y="-8"
     inkscape:window-maximized="1"
     inkscape:current-layer="g4144" /><g
     id="g4144"
     inkscape:groupmode="layer"
     inkscape:label="file"
     transform="matrix(1.25,0,0,-1.25,2.0374269,894.281)"><path
       inkscape:connector-curvature="0"
       id="path4148"
       style="fill:#17194a;fill-opacity:1;fill-rule:nonzero;stroke:none"
       d="m 375.35514,9.4305609 22.6068,29.8592881 -25.59264,0 2.98584,-29.8592881 z" /><path
       inkscape:connector-curvature="0"
       id="path4150"
       style="fill:#23256e;fill-opacity:1;fill-rule:nonzero;stroke:none"
       d="m 397.96194,39.289849 -25.59264,41.3748 0,-41.3748 25.59264,0 z" /><path
       inkscape:connector-curvature="0"
       id="path4152"
       style="fill:#440f48;fill-opacity:1;fill-rule:nonzero;stroke:none"
       d="m 389.3493,53.213689 12.0252,55.175521 -29.0052,-27.724561 16.98,-27.45096 z" /><path
       inkscape:connector-curvature="0"
       id="path4154"
       style="fill:#8a1c55;fill-opacity:1;fill-rule:nonzero;stroke:none"
       d="m 401.3745,108.38921 20.90064,51.18672 -30.7116,-6.82512 9.81096,-44.3616 z" /><path
       inkscape:connector-curvature="0"
       id="path4156"
       style="fill:#5c144e;fill-opacity:1;fill-rule:nonzero;stroke:none"
       d="m 372.3693,80.664649 19.19424,72.086161 9.81096,-44.3616 -29.0052,-27.724561 z" /><path
       inkscape:connector-curvature="0"
       id="path4158"
       style="fill:#ba084a;fill-opacity:1;fill-rule:nonzero;stroke:none"
       d="m 422.27514,159.57593 46.49352,34.97712 -77.20512,-41.80224 30.7116,6.82512 z" /><path
       inkscape:connector-curvature="0"
       id="path4160"
       style="fill:#a60d2c;fill-opacity:1;fill-rule:nonzero;stroke:none"
       d="m 468.76866,194.55305 -52.89192,-4.69224 -24.3132,-37.11 77.20512,41.80224 z" /><path
       inkscape:connector-curvature="0"
       id="path4162"
       style="fill:#880046;fill-opacity:1;fill-rule:nonzero;stroke:none"
       d="m 415.87674,189.86081 61.84968,63.55488 -8.95776,-58.86264 -52.89192,-4.69224 z" /><path
       inkscape:connector-curvature="0"
       id="path4164"
       style="fill:#b01419;fill-opacity:1;fill-rule:nonzero;stroke:none"
       d="m 468.76866,194.55305 101.72808,47.77224 -92.77032,11.0904 -8.95776,-58.86264 z" /><path
       inkscape:connector-curvature="0"
       id="path4166"
       style="fill:#a61217;fill-opacity:1;fill-rule:nonzero;stroke:none"
       d="m 570.49674,242.32529 104.7216,4.692 -57.1584,57.5832 -47.5632,-62.2752 z" /><path
       inkscape:connector-curvature="0"
       id="path4168"
       style="fill:#d91920;fill-opacity:1;fill-rule:nonzero;stroke:none"
       d="m 477.72642,253.41569 140.33352,51.1848 -47.5632,-62.2752 -92.77032,11.0904 z" /><path
       inkscape:connector-curvature="0"
       id="path4170"
       style="fill:#f25c19;fill-opacity:1;fill-rule:nonzero;stroke:none"
       d="m 456.47898,231.58289 -72.59352,106.2888 93.84096,-84.456 -21.24744,-21.8328 z" /><path
       inkscape:connector-curvature="0"
       id="path4172"
       style="fill:#f03838;fill-opacity:1;fill-rule:nonzero;stroke:none"
       d="m 424.93866,300.92369 193.12128,3.6768 -140.33352,-51.1848 -52.78776,47.508 z" /><path
       inkscape:connector-curvature="0"
       id="path4174"
       style="fill:#f79210;fill-opacity:1;fill-rule:nonzero;stroke:none"
       d="m 383.88546,337.87169 37.53648,9.8112 3.51672,-46.7592 -41.0532,36.948 z" /><path
       inkscape:connector-curvature="0"
       id="path4176"
       style="fill:#f57c14;fill-opacity:1;fill-rule:nonzero;stroke:none"
       d="m 421.42194,347.68289 38.39736,-46.0944 -34.88064,-0.6648 -3.51672,46.7592 z" /><path
       inkscape:connector-curvature="0"
       id="path4178"
       style="fill:#ed114e;fill-opacity:1;fill-rule:nonzero;stroke:none"
       d="m 618.05994,304.60049 61.8504,43.0824 -4.692,-100.6656 -57.1584,57.5832 z" /><path
       inkscape:connector-curvature="0"
       id="path4180"
       style="fill:#7d0f6b;fill-opacity:1;fill-rule:nonzero;stroke:none"
       d="m 675.21834,247.01729 53.316,-101.09136 23.8872,130.09776 -77.2032,-29.0064 z" /><path
       inkscape:connector-curvature="0"
       id="path4182"
       style="fill:#281549;fill-opacity:1;fill-rule:nonzero;stroke:none"
       d="m 735.89274,186.00209 28.8984,-59.27064 -36.2568,19.19448 7.3584,40.07616 z" /><path
       inkscape:connector-curvature="0"
       id="path4184"
       style="fill:#23256e;fill-opacity:1;fill-rule:nonzero;stroke:none"
       d="m 728.53434,145.92593 -4.6896,-69.953521 40.9464,50.759041 -36.2568,19.19448 z" /><path
       inkscape:connector-curvature="0"
       id="path4186"
       style="fill:#2e3192;fill-opacity:1;fill-rule:nonzero;stroke:none"
       d="m 764.79114,126.73145 -33.2712,-93.840001 -7.6752,43.08096 40.9464,50.759041 z" /><path
       inkscape:connector-curvature="0"
       id="path4188"
       style="fill:#0e5f9d;fill-opacity:1;fill-rule:nonzero;stroke:none"
       d="m 723.84474,75.972409 -22.608,-63.55584 30.2832,20.47488 -7.6752,43.08096 z" /><path
       inkscape:connector-curvature="0"
       id="path4190"
       style="fill:#0085bc;fill-opacity:1;fill-rule:nonzero;stroke:none"
       d="m 731.51994,32.891449 -17.7,-46.06776 -12.5832,25.59288 30.2832,20.47488 z" /><path
       inkscape:connector-curvature="0"
       id="path4192"
       style="fill:#26b9f1;fill-opacity:1;fill-rule:nonzero;stroke:none"
       d="m 701.23674,12.416569 -22.1808,-25.59288 34.764,0 -12.5832,25.59288 z" /><path
       inkscape:connector-curvature="0"
       id="path4194"
       style="fill:#851f77;fill-opacity:1;fill-rule:nonzero;stroke:none"
       d="m 752.42154,276.02369 -72.5112,71.6592 -4.692,-100.6656 77.2032,29.0064 z" /><path
       inkscape:connector-curvature="0"
       id="path4196"
       style="fill:#70174e;fill-opacity:1;fill-rule:nonzero;stroke:none"
       d="m 752.42154,276.02369 15.7824,74.0064 -88.2936,-2.3472 72.5112,-71.6592 z" /><path
       inkscape:connector-curvature="0"
       id="path4198"
       style="fill:#281549;fill-opacity:1;fill-rule:nonzero;stroke:none"
       d="m 752.42154,276.02369 23.7816,44.2536 -7.9992,29.7528 -15.7824,-74.0064 z" /><path
       inkscape:connector-curvature="0"
       id="path4200"
       style="fill:#2744a0;fill-opacity:1;fill-rule:nonzero;stroke:none"
       d="m 768.20394,202.54985 40.62719,-51.18552 -59.18159,17.2752 18.5544,33.91032 z" /><path
       inkscape:connector-curvature="0"
       id="path4202"
       style="fill:#125582;fill-opacity:1;fill-rule:nonzero;stroke:none"
       d="m 808.83113,151.36433 -5.436,-73.898401 -24.15359,82.535521 29.58959,-8.63712 z" /><path
       inkscape:connector-curvature="0"
       id="path4204"
       style="fill:#005e8a;fill-opacity:1;fill-rule:nonzero;stroke:none"
       d="m 749.64954,168.63953 42.78239,-53.71488 -13.19039,45.0768 -29.592,8.63808 z" /><path
       inkscape:connector-curvature="0"
       id="path4206"
       style="fill:#0e3463;fill-opacity:1;fill-rule:nonzero;stroke:none"
       d="m 768.20394,202.54985 -15.7824,73.47384 -13.4904,-73.47384 29.2728,0 z" /><path
       inkscape:connector-curvature="0"
       id="path4208"
       style="fill:#084673;fill-opacity:1;fill-rule:nonzero;stroke:none"
       d="m 738.93114,202.54985 10.7184,-33.91032 18.5544,33.91032 -29.2728,0 z" /><path
       inkscape:connector-curvature="0"
       id="path4210"
       style="fill:#0f354c;fill-opacity:1;fill-rule:nonzero;stroke:none"
       d="m 776.20314,320.27729 -18.924,-66.8616 -4.8576,22.608 23.7816,44.2536 z" /><path
       inkscape:connector-curvature="0"
       id="path4212"
       style="fill:#ba084a;fill-opacity:1;fill-rule:nonzero;stroke:none"
       d="m 768.20394,350.03009 -77.0976,59.8224 -11.196,-62.1696 88.2936,2.3472 z" /><path
       inkscape:connector-curvature="0"
       id="path4214"
       style="fill:#a60c2f;fill-opacity:1;fill-rule:nonzero;stroke:none"
       d="m 768.20394,350.03009 -24.6336,37.7472 -52.464,22.0752 77.0976,-59.8224 z" /><path
       inkscape:connector-curvature="0"
       id="path4216"
       style="fill:#a60d2c;fill-opacity:1;fill-rule:nonzero;stroke:none"
       d="m 691.10634,409.85249 -106.8504,-10.8768 95.6544,-51.2928 11.196,62.1696 z" /><path
       inkscape:connector-curvature="0"
       id="path4218"
       style="fill:#ba151b;fill-opacity:1;fill-rule:nonzero;stroke:none"
       d="m 618.05994,304.60049 -33.804,94.3752 95.6544,-51.2928 -61.8504,-43.0824 z" /><path
       inkscape:connector-curvature="0"
       id="path4220"
       style="fill:#f14a54;fill-opacity:1;fill-rule:nonzero;stroke:none"
       d="m 459.8193,301.58849 135.55344,66.3504 22.6872,-63.3384 -158.24064,-3.012 z" /><path
       inkscape:connector-curvature="0"
       id="path4222"
       style="fill:#f03838;fill-opacity:1;fill-rule:nonzero;stroke:none"
       d="m 526.17162,334.06769 58.08432,64.908 11.1168,-31.0368 -69.20112,-33.8712 z" /><path
       inkscape:connector-curvature="0"
       id="path4224"
       style="fill:#f9a72b;fill-opacity:1;fill-rule:nonzero;stroke:none"
       d="m 421.42194,347.68289 104.74968,-13.6152 -66.35232,-32.4792 -38.39736,46.0944 z" /><path
       inkscape:connector-curvature="0"
       id="path4226"
       style="fill:#f9a72b;fill-opacity:1;fill-rule:nonzero;stroke:none"
       d="m 584.25594,398.97569 -119.64696,4.7976 61.56264,-69.7056 58.08432,64.908 z" /><path
       inkscape:connector-curvature="0"
       id="path4228"
       style="fill:#fcd205;fill-opacity:1;fill-rule:nonzero;stroke:none"
       d="m 464.60898,403.77329 -43.18704,-56.0904 104.74968,-13.6152 -61.56264,69.7056 z" /><path
       inkscape:connector-curvature="0"
       id="path4230"
       style="fill:#cce310;fill-opacity:1;fill-rule:nonzero;stroke:none"
       d="m 421.42194,347.68289 -10.8768,38.8152 54.06384,17.2752 -43.18704,-56.0904 z" /><path
       inkscape:connector-curvature="0"
       id="path4234"
       style="fill:#fcd205;fill-opacity:1;fill-rule:nonzero;stroke:none"
       d="m 410.54514,386.49809 -26.65968,-48.6264 37.53648,9.8112 -10.8768,38.8152 z" /><path
       inkscape:connector-curvature="0"
       id="path4236"
       style="fill:#f9a72b;fill-opacity:1;fill-rule:nonzero;stroke:none"
       d="m 383.88546,337.87169 -14.60904,53.424 41.26872,-4.7976 -26.65968,-48.6264 z" /><path
       inkscape:connector-curvature="0"
       id="path4242"
       style="fill:#132b37;fill-opacity:1;fill-rule:nonzero;stroke:none"
       d="m 757.44234,366.52049 25.79759,-26.0904 -7.03679,-20.1528 -8.4984,27.4056 -10.2624,18.8376" /><path
       inkscape:connector-curvature="0"
       id="path4244"
       style="fill:#632d46;fill-opacity:1;fill-rule:nonzero;stroke:none"
       d="m 783.23993,340.43009 0,-61.4208 -7.03679,41.268 7.03679,20.1528 z" /><path
       inkscape:connector-curvature="0"
       id="path4246"
       style="fill:#4f1942;fill-opacity:1;fill-rule:nonzero;stroke:none"
       d="m 762.95274,273.46289 20.28719,5.5464 -7.03679,41.268 -13.2504,-46.8144 z" /><path
       inkscape:connector-curvature="0"
       id="path4248"
       style="fill:#851132;fill-opacity:1;fill-rule:nonzero;stroke:none"
       d="m 783.23993,279.00929 13.7568,-28.152 -34.04399,22.6056 20.28719,5.5464 z" /><rect
       style="opacity:1;fill:#ffffff;fill-opacity:1;fill-rule:nonzero;stroke:none;stroke-width:1;stroke-linejoin:round;stroke-miterlimit:4;stroke-dasharray:none;stroke-dashoffset:0;stroke-opacity:1"
       id="rect7116"
       width="254.42737"
       height="412.81738"
       x="-3.0633352"
       y="-716.81696"
       transform="scale(1,-1)" /><g
       id="g4474"
       transform="translate(-0.02994152,0)"><path
         d="m 161.55384,416.9496 -15.0348,83.1768 -39.02904,-100.452 54.06384,17.2752 z"
         style="fill:#00a770;fill-opacity:1;fill-rule:nonzero;stroke:none"
         id="path4232"
         inkscape:connector-curvature="0" /><path
         d="M 66.22128,404.472 128.57616,453.9456 107.49,399.6744 66.22128,404.472 Z"
         style="fill:#fff200;fill-opacity:1;fill-rule:nonzero;stroke:none"
         id="path4238"
         inkscape:connector-curvature="0" /><path
         d="m 66.22128,404.472 14.60904,41.2704 47.74584,8.2032 -62.35488,-49.4736 z"
         style="fill:#bfdf14;fill-opacity:1;fill-rule:nonzero;stroke:none"
         id="path4240"
         inkscape:connector-curvature="0" /><path
         d="m 146.51904,500.1264 -34.55064,39.348 34.55064,-6.3984 0,-32.9496 z"
         style="fill:#0f868e;fill-opacity:1;fill-rule:nonzero;stroke:none"
         id="path4250"
         inkscape:connector-curvature="0" /><path
         d="M 80.83032,445.7424 75.8184,474.852 128.57616,453.9456 80.83032,445.7424 Z"
         style="fill:#a6d71c;fill-opacity:1;fill-rule:nonzero;stroke:none"
         id="path4252"
         inkscape:connector-curvature="0" /><path
         d="M 75.8184,474.852 146.51904,500.1264 128.57616,453.9456 75.8184,474.852 Z"
         style="fill:#59c134;fill-opacity:1;fill-rule:nonzero;stroke:none"
         id="path4254"
         inkscape:connector-curvature="0" /><path
         d="m 75.8184,474.852 36.15,64.6224 34.55064,-39.348 L 75.8184,474.852 Z"
         style="fill:#00a770;fill-opacity:1;fill-rule:nonzero;stroke:none"
         id="path4256"
         inkscape:connector-curvature="0" /><path
         d="m 75.8184,474.852 -23.03328,0 59.18328,64.6224 -36.15,-64.6224 z"
         style="fill:#05768d;fill-opacity:1;fill-rule:nonzero;stroke:none"
         id="path4258"
         inkscape:connector-curvature="0" /><path
         d="m 69.61512,493.2312 6.20328,40.8048 36.15,5.4384 -42.35328,-46.2432 z"
         style="fill:#3c63b8;fill-opacity:1;fill-rule:nonzero;stroke:none"
         id="path4260"
         inkscape:connector-curvature="0" /><path
         d="m 52.78512,474.852 28.0452,-29.1096 -5.01192,29.1096 -23.03328,0 z"
         style="fill:#00a770;fill-opacity:1;fill-rule:nonzero;stroke:none"
         id="path4262"
         inkscape:connector-curvature="0" /><path
         d="m 52.78512,474.852 -8.63736,-20.9064 36.68256,-8.2032 -28.0452,29.1096 z"
         style="fill:#59c134;fill-opacity:1;fill-rule:nonzero;stroke:none"
         id="path4264"
         inkscape:connector-curvature="0" /><path
         d="m 80.83032,445.7424 -24.52584,-5.1192 -12.15672,13.3224 36.68256,-8.2032 z"
         style="fill:#73c82c;fill-opacity:1;fill-rule:nonzero;stroke:none"
         id="path4266"
         inkscape:connector-curvature="0" /><path
         d="M 69.61512,493.2312 59.18352,516.3504 75.8184,534.036 69.61512,493.2312 Z"
         style="fill:#00abb7;fill-opacity:1;fill-rule:nonzero;stroke:none"
         id="path4268"
         inkscape:connector-curvature="0" /><path
         d="m 60.58968,483.3744 2.73936,23.7888 6.28608,-13.932 -9.02544,-9.8568 z"
         style="fill:#4dc6f4;fill-opacity:1;fill-rule:nonzero;stroke:none"
         id="path4270"
         inkscape:connector-curvature="0" /><path
         d="m 146.51904,533.076 27.19224,24.3144 49.90584,4.4784 -77.09808,-28.7928 z"
         style="fill:#005d4f;fill-opacity:1;fill-rule:nonzero;stroke:none"
         id="path4272"
         inkscape:connector-curvature="0" /><path
         d="m 223.61712,561.8688 -16.3152,-36.4704 -60.78288,7.6776 77.09808,28.7928 z"
         style="fill:#0f868e;fill-opacity:1;fill-rule:nonzero;stroke:none"
         id="path4274"
         inkscape:connector-curvature="0" /><path
         d="m 207.30192,525.3984 -60.78288,-11.7648 0,19.4424 60.78288,-7.6776 z"
         style="fill:#0799b5;fill-opacity:1;fill-rule:nonzero;stroke:none"
         id="path4276"
         inkscape:connector-curvature="0" /><path
         d="M 75.8184,534.036 55.34448,554.5104 7.357512,559.9488 75.8184,534.036 Z"
         style="fill:#005d28;fill-opacity:1;fill-rule:nonzero;stroke:none"
         id="path4278"
         inkscape:connector-curvature="0" /><path
         d="M 59.18352,516.3504 7.357512,559.9488 75.8184,534.036 59.18352,516.3504 Z"
         style="fill:#0b686e;fill-opacity:1;fill-rule:nonzero;stroke:none"
         id="path4280"
         inkscape:connector-curvature="0" /><path
         d="M 7.357512,559.9488 27.19224,528.2784 59.18352,516.3504 7.357512,559.9488 Z"
         style="fill:#0799b5;fill-opacity:1;fill-rule:nonzero;stroke:none"
         id="path4282"
         inkscape:connector-curvature="0" /><path
         d="m 111.9684,539.4744 25.91256,20.4744 -8.63712,-23.6736 -17.27544,3.1992 z"
         style="fill:#ba084a;fill-opacity:1;fill-rule:nonzero;stroke:none"
         id="path4284"
         inkscape:connector-curvature="0" /><path
         d="m 129.24384,536.2752 36.46968,25.5936 -27.83256,-1.92 -8.63712,-23.6736 z"
         style="fill:#ec0677;fill-opacity:1;fill-rule:nonzero;stroke:none"
         id="path4286"
         inkscape:connector-curvature="0" /><path
         d="m 147.47808,549.072 26.2332,8.3184 -7.99776,4.4784 -18.23544,-12.7968 z"
         style="fill:#a0148e;fill-opacity:1;fill-rule:nonzero;stroke:none"
         id="path4288"
         inkscape:connector-curvature="0" /><path
         d="m 165.71352,561.8688 43.18776,20.1552 -35.19,-24.6336 -7.99776,4.4784 z"
         style="fill:#6e126b;fill-opacity:1;fill-rule:nonzero;stroke:none"
         id="path4290"
         inkscape:connector-curvature="0" /><path
         d="m 173.71128,557.3904 40.30872,17.2752 -5.11872,7.3584 -35.19,-24.6336 z"
         style="fill:#a11971;fill-opacity:1;fill-rule:nonzero;stroke:none"
         id="path4292"
         inkscape:connector-curvature="0" /><path
         d="m 214.02,574.6656 24.3132,35.1888 -29.43192,-27.8304 5.11872,-7.3584 z"
         style="fill:#ec047c;fill-opacity:1;fill-rule:nonzero;stroke:none"
         id="path4294"
         inkscape:connector-curvature="0" /><path
         d="m 208.90128,582.024 0,33.5904 14.71584,-19.6752 -14.71584,-13.9152 z"
         style="fill:#8d0e5c;fill-opacity:1;fill-rule:nonzero;stroke:none"
         id="path4296"
         inkscape:connector-curvature="0" /><path
         d="m 208.90128,615.6144 -43.18776,22.7136 43.18776,-32.3112 0,9.5976 z"
         style="fill:#5c144e;fill-opacity:1;fill-rule:nonzero;stroke:none"
         id="path4298"
         inkscape:connector-curvature="0" /><path
         d="m 238.3332,609.8544 6.3972,51.5064 -14.32008,-58.9968 7.92288,7.4904 z"
         style="fill:#7a1d90;fill-opacity:1;fill-rule:nonzero;stroke:none"
         id="path4300"
         inkscape:connector-curvature="0" /><path
         d="m 217.83096,603.6744 11.22384,22.4952 -20.15352,-10.5552 8.92968,-11.94 z"
         style="fill:#6e126b;fill-opacity:1;fill-rule:nonzero;stroke:none"
         id="path4302"
         inkscape:connector-curvature="0" /><path
         d="m 229.0548,626.1696 4.47936,28.4736 -14.55576,-33.7512 10.0764,5.2776 z"
         style="fill:#bd0c8d;fill-opacity:1;fill-rule:nonzero;stroke:none"
         id="path4304"
         inkscape:connector-curvature="0" /><path
         d="m 233.53416,654.6432 -7.278,45.108 0.87288,-59.9592 6.40512,14.8512 z"
         style="fill:#ec047c;fill-opacity:1;fill-rule:nonzero;stroke:none"
         id="path4306"
         inkscape:connector-curvature="0" /><path
         d="m 227.12904,639.792 -15.66936,14.8512 15.66936,-7.4256 0,-7.4256 z"
         style="fill:#7a1d90;fill-opacity:1;fill-rule:nonzero;stroke:none"
         id="path4308"
         inkscape:connector-curvature="0" /><path
         d="m 137.88096,559.9488 -3.35904,38.868 -5.27808,-45.6912 8.63712,6.8232 z"
         style="fill:#a6083d;fill-opacity:1;fill-rule:nonzero;stroke:none"
         id="path4310"
         inkscape:connector-curvature="0" /><path
         d="m 94.74648,536.8848 -46.44,47.0592 32.52384,-49.152 13.91616,2.0928 z"
         style="fill:#7a1d90;fill-opacity:1;fill-rule:nonzero;stroke:none"
         id="path4312"
         inkscape:connector-curvature="0" /><path
         d="m 48.30648,583.944 -17.91552,2.5584 42.36552,-39.5088 -24.45,36.9504 z"
         style="fill:#23256e;fill-opacity:1;fill-rule:nonzero;stroke:none"
         id="path4314"
         inkscape:connector-curvature="0" /><path
         d="m 86.91552,544.8192 -4.5384,58.8552 -7.86744,-46.284 12.40584,-12.5712 z"
         style="fill:#17194a;fill-opacity:1;fill-rule:nonzero;stroke:none"
         id="path4316"
         inkscape:connector-curvature="0" /><path
         d="m 48.30648,583.944 0,76.1376 -11.24136,-74.532 11.24136,-1.6056 z"
         style="fill:#47165e;fill-opacity:1;fill-rule:nonzero;stroke:none"
         id="path4318"
         inkscape:connector-curvature="0" /><path
         d="m 48.30648,610.8144 27.51192,34.2312 -27.51192,-18.876 0,-15.3552 z"
         style="fill:#a11971;fill-opacity:1;fill-rule:nonzero;stroke:none"
         id="path4320"
         inkscape:connector-curvature="0" /><path
         d="m 48.30648,660.0816 -13.43616,26.232 7.7184,-64.1424 5.71776,37.9104 z"
         style="fill:#ec086d;fill-opacity:1;fill-rule:nonzero;stroke:none"
         id="path4322"
         inkscape:connector-curvature="0" /><path
         d="M 42.6852,671.0544 69.10032,713.8248 48.30648,660.0816 42.6852,671.0544 Z"
         style="fill:#84085c;fill-opacity:1;fill-rule:nonzero;stroke:none"
         id="path4324"
         inkscape:connector-curvature="0" /><path
         d="M 30.39096,586.5024 0,627.9312 38.07744,592.26 l -1.01232,-6.7104 -6.67416,0.9528"
         style="fill:#ec0772;fill-opacity:1;fill-rule:nonzero;stroke:none"
         id="path4326"
         inkscape:connector-curvature="0" /><path
         d="M 0,627.9312 6.078744,686.3136 7.513128,620.892 0,627.9312 Z"
         style="fill:#a60c2f;fill-opacity:1;fill-rule:nonzero;stroke:none"
         id="path4328"
         inkscape:connector-curvature="0" /><path
         d="M 13.147512,615.6144 30.39096,662.64 21.76968,607.536 13.147512,615.6144 Z"
         style="fill:#7a1d90;fill-opacity:1;fill-rule:nonzero;stroke:none"
         id="path4330"
         inkscape:connector-curvature="0" /></g><path
       inkscape:connector-curvature="0"
       id="path4332"
       style="fill:#600947;fill-opacity:1;fill-rule:nonzero;stroke:none"
       d="m 521.4993,219.31433 -5.38416,-92.15616 -38.38872,71.60064 43.77288,20.55552 z" /><path
       inkscape:connector-curvature="0"
       id="path4334"
       style="fill:#4d155e;fill-opacity:1;fill-rule:nonzero;stroke:none"
       d="m 520.2261,197.52305 16.3632,-67.37904 -20.47416,-2.98584 4.11096,70.36488 z" /><path
       inkscape:connector-curvature="0"
       id="path4336"
       style="fill:#7e1355;fill-opacity:1;fill-rule:nonzero;stroke:none"
       d="m 536.5893,130.14401 -2.55936,-74.646481 -17.9148,71.660641 20.47416,2.98584 z" /><path
       inkscape:connector-curvature="0"
       id="path4338"
       style="fill:#a11971;fill-opacity:1;fill-rule:nonzero;stroke:none"
       d="m 536.5893,130.14401 16.20984,-79.337761 -18.7692,4.69128 2.55936,74.646481 z" /><path
       inkscape:connector-curvature="0"
       id="path4340"
       style="fill:#ba0a42;fill-opacity:1;fill-rule:nonzero;stroke:none"
       d="m 552.79914,50.806249 -9.384,-51.18568791 -9.3852,55.87696791 18.7692,-4.69128 z" /><path
       inkscape:connector-curvature="0"
       id="path4342"
       style="fill:#a60d2c;fill-opacity:1;fill-rule:nonzero;stroke:none"
       d="m 516.11514,-0.37943891 21.71352,33.26440791 5.58648,-33.26440791 -27.3,0 z" /><path
       inkscape:connector-curvature="0"
       id="path4344"
       style="fill:#005e8a;fill-opacity:1;fill-rule:nonzero;stroke:none"
       d="m 807.78713,137.14721 29.676,-97.271281 -34.068,37.59 4.392,59.681281 z" /><path
       inkscape:connector-curvature="0"
       id="path4346"
       style="fill:#0085bc;fill-opacity:1;fill-rule:nonzero;stroke:none"
       d="m 803.39513,77.465929 9.1152,-44.57448 24.9528,6.98448 -34.068,37.59 z" /><path
       inkscape:connector-curvature="0"
       id="path4348"
       style="fill:#33bdf2;fill-opacity:1;fill-rule:nonzero;stroke:none"
       d="m 837.46313,39.875929 -22.0728,-39.82879191 -2.88,32.84431191 24.9528,6.98448 z" /><path
       inkscape:connector-curvature="0"
       id="path4350"
       style="fill:#0799b5;fill-opacity:1;fill-rule:nonzero;stroke:none"
       d="m 815.39033,0.04713709 -26.8728,0 23.9928,32.84431191 2.88,-32.84431191 z" /><text
       xml:space="preserve"
       style="font-style:normal;font-weight:normal;font-size:16px;line-height:125%;font-family:sans-serif;letter-spacing:0px;word-spacing:0px;fill:#47165e;fill-opacity:1;stroke:#17194a;stroke-width:0.80000001;stroke-linecap:butt;stroke-linejoin:round;stroke-miterlimit:4;stroke-dasharray:none;stroke-opacity:1"
       x="35.223381"
       y="-343.50137"
       id="text4454"
       sodipodi:linespacing="125%"
       transform="scale(1,-1)"><tspan
         sodipodi:role="line"
         x="35.223381"
         y="-343.50137"
         style="font-style:normal;font-variant:normal;font-weight:normal;font-stretch:normal;font-size:72px;font-family:Verdana;-inkscape-font-specification:Verdana;fill:#47165e;fill-opacity:1;stroke:#17194a;stroke-width:0.80000001;stroke-linejoin:round;stroke-miterlimit:4;stroke-dasharray:none;stroke-opacity:1"
         id="tspan4464"
         dx="2.700001 -2.700001 0 -4.1799965">StaG</tspan></text>
<text
       xml:space="preserve"
       style="font-style:normal;font-weight:normal;font-size:16px;line-height:125%;font-family:sans-serif;letter-spacing:0px;word-spacing:0px;fill:#05768d;fill-opacity:1;stroke:none;stroke-width:1px;stroke-linecap:butt;stroke-linejoin:miter;stroke-opacity:1"
       x="121.94463"
       y="-311.33517"
       id="text4470"
       sodipodi:linespacing="125%"
       transform="scale(1,-1)"><tspan
         sodipodi:role="line"
         id="tspan4472"
         x="121.94463"
         y="-311.33517"
         style="font-style:italic;font-variant:normal;font-weight:normal;font-stretch:normal;font-size:64px;font-family:Perpetua;-inkscape-font-specification:'Perpetua Italic';text-align:center;letter-spacing:0px;text-anchor:middle;fill:#05768d;fill-opacity:1;stroke:none;stroke-opacity:1">mwc</tspan></text>
</g></svg>